<svg width="30" height="30" viewBox="0 0 30 30" fill="none" xmlns="http://www.w3.org/2000/svg">
<g clip-path="url(#clip0_33_285)">
<path d="M23.375 13.125H21.5V15H23.375C24.1207 15.0007 24.8356 15.2973 25.3629 15.8246C25.8902 16.3519 26.1868 17.0668 26.1875 17.8125V21.5625H28.0625V17.8125C28.061 16.5698 27.5667 15.3783 26.6879 14.4996C25.8092 13.6208 24.6177 13.1265 23.375 13.125ZM21.5 3.75C22.0563 3.75 22.6 3.91495 23.0625 4.22399C23.5251 4.53303 23.8855 4.97229 24.0984 5.4862C24.3113 6.00012 24.367 6.56562 24.2585 7.11119C24.1499 7.65676 23.8821 8.1579 23.4887 8.55124C23.0954 8.94457 22.5943 9.21244 22.0487 9.32096C21.5031 9.42948 20.9376 9.37378 20.4237 9.16091C19.9098 8.94804 19.4705 8.58755 19.1615 8.12504C18.8524 7.66253 18.6875 7.11876 18.6875 6.5625C18.6875 5.81658 18.9838 5.10121 19.5113 4.57376C20.0387 4.04632 20.7541 3.75 21.5 3.75ZM21.5 1.875C20.5729 1.875 19.6666 2.14992 18.8958 2.66499C18.1249 3.18006 17.5241 3.91214 17.1693 4.76867C16.8145 5.6252 16.7217 6.5677 16.9026 7.47699C17.0834 8.38627 17.5299 9.2215 18.1854 9.87706C18.841 10.5326 19.6762 10.9791 20.5855 11.1599C21.4948 11.3408 22.4373 11.248 23.2938 10.8932C24.1504 10.5384 24.8824 9.93759 25.3975 9.16674C25.9126 8.39588 26.1875 7.4896 26.1875 6.5625C26.1875 5.3193 25.6936 4.12701 24.8146 3.24794C23.9355 2.36886 22.7432 1.875 21.5 1.875ZM20.5625 28.125H18.6875V26.25C18.6868 25.5043 18.3902 24.7894 17.8629 24.2621C17.3356 23.7348 16.6207 23.4382 15.875 23.4375H12.125C11.3793 23.4382 10.6644 23.7348 10.1371 24.2621C9.6098 24.7894 9.31324 25.5043 9.3125 26.25V28.125H7.4375V26.25C7.43899 25.0073 7.93333 23.8158 8.81208 22.9371C9.69083 22.0583 10.8823 21.564 12.125 21.5625H15.875C17.1177 21.564 18.3092 22.0583 19.1879 22.9371C20.0667 23.8158 20.561 25.0073 20.5625 26.25V28.125ZM14 12.1875C14.5563 12.1875 15.1 12.3525 15.5625 12.6615C16.0251 12.9705 16.3855 13.4098 16.5984 13.9237C16.8113 14.4376 16.867 15.0031 16.7585 15.5487C16.6499 16.0943 16.3821 16.5954 15.9887 16.9887C15.5954 17.3821 15.0943 17.6499 14.5487 17.7585C14.0031 17.867 13.4376 17.8113 12.9237 17.5984C12.4098 17.3855 11.9705 17.0251 11.6615 16.5625C11.3525 16.1 11.1875 15.5563 11.1875 15C11.1875 14.2541 11.4838 13.5387 12.0113 13.0113C12.5387 12.4838 13.2541 12.1875 14 12.1875ZM14 10.3125C13.0729 10.3125 12.1666 10.5874 11.3958 11.1025C10.6249 11.6176 10.0241 12.3496 9.66931 13.2062C9.31453 14.0627 9.2217 15.0052 9.40257 15.9145C9.58344 16.8238 10.0299 17.659 10.6854 18.3146C11.341 18.9701 12.1762 19.4166 13.0855 19.5974C13.9948 19.7783 14.9373 19.6855 15.7938 19.3307C16.6504 18.9759 17.3824 18.3751 17.8975 17.6042C18.4126 16.8334 18.6875 15.9271 18.6875 15C18.6875 13.7568 18.1936 12.5645 17.3146 11.6854C16.4355 10.8064 15.2432 10.3125 14 10.3125ZM6.5 13.125H4.625C3.38225 13.1265 2.19084 13.6208 1.31208 14.4996C0.433327 15.3783 -0.0610114 16.5698 -0.0625 17.8125V21.5625H1.8125V17.8125C1.81324 17.0668 2.1098 16.3519 2.63708 15.8246C3.16437 15.2973 3.87931 15.0007 4.625 15H6.5V13.125ZM6.5 3.75C7.05626 3.75 7.60003 3.91495 8.06254 4.22399C8.52505 4.53303 8.88554 4.97229 9.09841 5.4862C9.31128 6.00012 9.36698 6.56562 9.25846 7.11119C9.14994 7.65676 8.88207 8.1579 8.48874 8.55124C8.0954 8.94457 7.59426 9.21244 7.04869 9.32096C6.50312 9.42948 5.93762 9.37378 5.4237 9.16091C4.90979 8.94804 4.47053 8.58755 4.16149 8.12504C3.85245 7.66253 3.6875 7.11876 3.6875 6.5625C3.6875 5.81658 3.98382 5.10121 4.51126 4.57376C5.03871 4.04632 5.75408 3.75 6.5 3.75ZM6.5 1.875C5.5729 1.875 4.66662 2.14992 3.89576 2.66499C3.12491 3.18006 2.5241 3.91214 2.16931 4.76867C1.81453 5.6252 1.7217 6.5677 1.90257 7.47699C2.08344 8.38627 2.52988 9.2215 3.18544 9.87706C3.841 10.5326 4.67623 10.9791 5.58551 11.1599C6.4948 11.3408 7.4373 11.248 8.29383 10.8932C9.15036 10.5384 9.88244 9.93759 10.3975 9.16674C10.9126 8.39588 11.1875 7.4896 11.1875 6.5625C11.1875 5.3193 10.6936 4.12701 9.81456 3.24794C8.93549 2.36886 7.7432 1.875 6.5 1.875Z" fill="white"/>
</g>
<defs>
<clipPath id="clip0_33_285">
<rect width="30" height="30" fill="white"/>
</clipPath>
</defs>
</svg>
