<svg width="30" height="30" viewBox="0 0 30 30" fill="none" xmlns="http://www.w3.org/2000/svg">
<path d="M3.39258 15.2786C4.34414 14.7476 5.4585 14.5873 6.52115 14.8286M8.27829 9.17143C7.67148 8.25664 7.41999 7.15159 7.57115 6.06429M13.2069 1.54286C12.4558 3.84359 12.5546 6.33736 13.4854 8.57143M24.3926 28.2857L10.0783 22.95C9.65458 22.8004 9.27532 22.5465 8.97543 22.2119C8.67554 21.8772 8.46467 21.4725 8.36222 21.035C8.25978 20.5974 8.26905 20.1412 8.38919 19.7082C8.50934 19.2752 8.73648 18.8793 9.04972 18.5571L18.0283 9.57858C18.36 9.26771 18.7647 9.04562 19.2051 8.93289C19.6455 8.82016 20.1072 8.82044 20.5474 8.9337C20.9877 9.04697 21.3922 9.26955 21.7235 9.58082C22.0548 9.89209 22.3021 10.282 22.4426 10.7143L27.7569 25.0286C27.9045 25.4923 27.9197 25.988 27.8009 26.46C27.682 26.9319 27.4338 27.3613 27.0842 27.6998C26.7345 28.0383 26.2973 28.2725 25.8218 28.376C25.3463 28.4795 24.8513 28.4483 24.3926 28.2857Z" stroke="#161B35" stroke-width="2.14286" stroke-linecap="round" stroke-linejoin="round"/>
<path d="M2.14272 8.10001C2.73445 8.10001 3.21415 7.62032 3.21415 7.02858C3.21415 6.43685 2.73445 5.95715 2.14272 5.95715C1.55098 5.95715 1.07129 6.43685 1.07129 7.02858C1.07129 7.62032 1.55098 8.10001 2.14272 8.10001Z" stroke="#161B35" stroke-width="2.14286" stroke-linecap="round" stroke-linejoin="round"/>
</svg>
