<svg width="200" height="44" viewBox="0 0 200 44" fill="none" xmlns="http://www.w3.org/2000/svg">
<g clip-path="url(#clip0_29_160)">
<path d="M55.8932 16.3817L51.6934 2.14976H47.1082V31.1579H50.8616V11.7012L54.2093 22.6405H57.2526L60.6408 11.674V31.1579H64.3943V2.14976H60.093L55.8932 16.3817ZM76.8922 31.1579H80.2601V15.7014C80.2601 9.79638 77.7849 7.8099 74.1532 7.8099C70.1563 7.8099 68.0462 10.0685 68.0462 15.7014H71.4953C71.4953 13.0346 72.3881 12.055 74.1329 12.055C75.7966 12.055 76.6284 13.1979 76.6284 15.8103V18.1505C75.8372 18.0145 74.9039 17.9056 74.1532 17.9056C69.507 17.9056 67.539 20.4908 67.539 25.1168C67.539 29.3347 69.5476 31.6206 72.4489 31.6206C74.3561 31.6206 75.8372 30.8314 76.7502 29.4164L76.8922 31.1579ZM76.6284 23.348C76.6284 25.9604 75.2285 27.4027 73.6663 27.4027C72.104 27.4027 71.3127 26.4502 71.3127 24.6814C71.3127 22.5861 72.1649 21.4976 74.4778 21.4976C75.0053 21.4976 76.04 21.5793 76.6284 21.7153V23.348ZM89.4916 26.9673C87.909 26.9673 87.3004 26.1509 87.3004 23.2392V13.8238H90.7089V9.3882H87.3004V4.08183H83.3846V23.1031C83.3846 28.8449 84.6425 31.6206 88.5786 31.6206C89.4713 31.6206 90.3437 31.4845 90.7089 31.3484V26.7768C90.3843 26.9128 89.9176 26.9673 89.4916 26.9673ZM102.618 23.0215V23.4297C102.618 25.9604 101.847 27.1305 99.8997 27.1305C97.9114 27.1305 97.1607 25.8244 97.1607 22.6677V16.6811C97.1607 13.4972 97.952 12.3543 99.92 12.3543C101.827 12.3543 102.558 13.4428 102.558 15.9191V16.3545H106.291V15.8919C106.291 10.4767 104.262 7.8099 99.8592 7.8099C95.4971 7.8099 93.3261 10.5855 93.3261 16.7627V22.6405C93.3261 28.8449 95.4362 31.6206 99.7983 31.6206C104.323 31.6206 106.311 28.8449 106.311 23.348V23.0215H102.618ZM113.108 1.76879H109.273V31.1579H113.108V16.1912C113.108 13.5245 114.102 12.3543 115.705 12.3543C117.612 12.3543 118.241 13.6061 118.241 16.6266V31.1579H122.075V16.0824C122.075 10.5311 120.574 7.8099 116.882 7.8099C115.258 7.8099 113.98 8.35414 113.108 9.41541V1.76879ZM141.086 18.0689V13.9054H132.747C130.191 13.9054 129.035 11.9189 129.035 9.52426C129.035 6.85747 130.171 5.71456 131.895 5.71456C133.579 5.71456 134.695 7.04795 134.857 9.79638H138.692C138.347 4.43558 135.872 1.68716 132.017 1.68716C127.817 1.68716 125.423 4.65328 125.423 9.3882C125.423 12.6265 126.498 14.9123 128.629 15.9735C126.275 17.0076 124.794 19.5111 124.794 23.4025C124.794 28.6816 127.209 31.6206 131.165 31.6206C133.518 31.6206 135.121 30.5593 136.014 28.7361C136.582 30.6409 137.718 31.5933 139.909 31.5933C140.417 31.5933 140.964 31.5117 141.411 31.4301V26.8312C141.127 26.9128 140.843 26.9401 140.518 26.9401C138.996 26.9401 138.428 26.1509 138.428 23.212V18.0689H141.086ZM134.878 22.0691C134.878 25.6067 134.005 27.4299 131.672 27.4299C129.44 27.4299 128.588 25.6067 128.588 22.9399C128.588 19.239 130.434 18.0689 132.504 18.0689H134.878V22.0691ZM154.72 21.4432V22.2051C154.619 25.3345 153.746 26.6679 151.636 26.6679C148.999 26.6679 148.41 24.7359 148.41 21.0078V12.3543C148.41 8.62626 149.06 6.63977 151.636 6.63977C153.625 6.63977 154.659 8.05481 154.659 11.0481V11.5924H158.859V11.157C158.859 5.00704 156.506 1.68716 151.636 1.68716C146.422 1.68716 144.292 5.38801 144.292 12.1638V21.2255C144.292 27.9197 146.381 31.6206 151.636 31.6206C156.607 31.6206 158.839 28.2735 158.879 22.1507V21.4432H154.72ZM165.615 1.76879H161.781V31.1579H165.615V16.1912C165.615 13.5245 166.609 12.3543 168.233 12.3543C170.14 12.3543 170.769 13.6061 170.769 16.6266V31.1579H174.603V16.0824C174.603 10.5311 173.082 7.8099 169.389 7.8099C167.786 7.8099 166.508 8.35414 165.615 9.41541V1.76879ZM181.806 8.2725H177.971V31.1579H181.806V8.2725ZM181.806 0H177.971V4.9254H181.806V0ZM191.443 26.8312C189.698 26.9401 189.11 26.3686 189.11 23.2392V1.76879H185.295V23.0215C185.295 29.4164 186.493 32.0832 191.443 31.4029V26.8312ZM199.964 26.8312C198.219 26.9401 197.631 26.3686 197.631 23.2392V1.76879H193.817V23.0215C193.817 29.4164 195.014 32.0832 199.964 31.4029V26.8312Z" fill="#00A3DD"/>
<path d="M21.2455 0.0917969C22.9504 0.0917969 24.3321 1.37372 24.3321 2.958C24.3321 4.54055 22.9504 5.82247 21.2455 5.82247C19.5406 5.82247 18.1588 4.54055 18.1588 2.958C18.1588 1.37372 19.5406 0.0917969 21.2455 0.0917969ZM15.9593 6.73603C15.9593 6.73603 38.6247 5.97215 39.5699 9.36932C40.0994 11.259 31.4166 11.0692 25.9824 11.0131L25.8759 19.6402L22.9923 32.9791C22.9923 32.9791 16.922 44.6475 13.9558 42.9226C13.9558 42.9226 11.4328 41.391 18.1972 31.7468L19.194 25.3113C19.194 25.3113 14.509 31.7468 12.2645 30.6801C12.2645 30.6801 7.77157 29.1183 15.5917 19.7506L15.7017 11.7533C15.7017 11.7533 5.77113 20.7099 4.33433 19.9697C4.33433 19.9697 -0.904268 19.5858 15.8667 6.83438" fill="#00A3DD"/>
<path d="M11.2328 25.3661C11.2328 25.3661 9.90255 28.2017 10.7618 29.7912C10.7618 29.7912 6.12172 29.8723 6.92591 27.091C6.92591 27.091 7.21449 25.6142 11.2328 25.3661ZM4.16931 35.3907C6.27976 35.3907 7.99511 37.1463 7.99511 39.3064C7.99511 41.4725 6.2802 43.225 4.16931 43.225C2.05536 43.225 0.343506 41.4729 0.343506 39.3064C0.343506 37.1463 2.05536 35.3907 4.16931 35.3907Z" fill="#00A3DD"/>
<path d="M48.5605 35.1804V41.4177H49.2879C49.9975 41.4177 50.5692 41.1313 51.0029 40.5585C51.4326 39.9857 51.6475 39.2352 51.6475 38.307C51.6475 37.2887 51.4405 36.509 51.0265 35.968C50.6126 35.427 50.0231 35.1565 49.2583 35.1565C48.868 35.1565 48.6354 35.1645 48.5605 35.1804ZM49.1755 41.7121H47.4309L47.4664 41.4813L48.1465 41.3143V35.435L47.4546 35.3156L47.496 35.1247C48.316 34.9497 48.9547 34.8622 49.412 34.8622C49.7905 34.8622 50.1335 34.9258 50.4411 35.0531C50.7446 35.1751 50.9989 35.3421 51.2039 35.5543C51.405 35.7612 51.5726 36.0078 51.7066 36.2942C51.8407 36.5806 51.9373 36.8776 51.9964 37.1852C52.0555 37.4929 52.0851 37.8137 52.0851 38.1479C52.0851 38.5298 52.0516 38.8904 51.9846 39.2299C51.9175 39.5746 51.8091 39.8982 51.6593 40.2005C51.5095 40.5081 51.3222 40.7706 51.0975 40.9881C50.8767 41.2109 50.6027 41.3859 50.2755 41.5132C49.9482 41.6458 49.5816 41.7121 49.1755 41.7121ZM57.3721 35.3156L56.6506 35.1724L56.6802 34.9417H60.3408L60.2166 36.6761L60.0333 36.6442L59.9564 35.2202H57.7979V38.124H59.1521L59.3 37.3682L59.5188 37.3284L59.3828 39.4447L59.1758 39.4924L59.1107 38.4184H57.7979V41.4177H60.0688L60.3645 39.9538L60.5301 40.0095L60.4118 41.7121H56.6624L56.6861 41.4813L57.3721 41.3143V35.3156ZM65.0955 41.0756L65.2197 39.5322L65.409 39.572L65.5273 40.7653C65.614 40.9934 65.7618 41.1737 65.9708 41.3063C66.1797 41.4389 66.4025 41.5052 66.6391 41.5052C66.9111 41.5052 67.1398 41.3991 67.3251 41.187C67.5143 40.9695 67.6089 40.6699 67.6089 40.288C67.6089 40.0705 67.5675 39.8637 67.4847 39.6674C67.398 39.4712 67.2876 39.2988 67.1536 39.1503C67.0156 39.0018 66.8638 38.8559 66.6982 38.7127C66.5326 38.5695 66.367 38.421 66.2014 38.2672C66.0398 38.1187 65.89 37.9622 65.752 37.7978C65.6179 37.6334 65.5075 37.4398 65.4208 37.2171C65.338 36.9943 65.2966 36.753 65.2966 36.4931C65.2966 35.9839 65.4326 35.5729 65.7047 35.2599C65.9767 34.9523 66.2882 34.7985 66.6391 34.7985C66.8677 34.7985 67.0885 34.8489 67.3014 34.9497C67.5143 35.0504 67.6858 35.1989 67.8159 35.3952L67.6858 37.0818L67.4966 37.042L67.3901 35.7214C67.3152 35.5463 67.1969 35.4005 67.0353 35.2838C66.8697 35.1671 66.7021 35.1088 66.5326 35.1088C66.296 35.1088 66.097 35.2096 65.9353 35.4111C65.7737 35.6179 65.6928 35.8937 65.6928 36.2385C65.6928 36.4719 65.7362 36.692 65.8229 36.8988C65.9097 37.1057 66.022 37.286 66.16 37.4398C66.298 37.5936 66.4518 37.7474 66.6213 37.9013C66.7869 38.0498 66.9545 38.1983 67.124 38.3468C67.2935 38.4953 67.4473 38.6491 67.5853 38.8082C67.7233 38.9673 67.8356 39.153 67.9224 39.3651C68.013 39.5773 68.0584 39.8 68.0584 40.0334C68.0584 40.5585 67.9086 40.9934 67.6089 41.3381C67.3132 41.6776 66.9209 41.8473 66.4321 41.8473C66.1521 41.8473 65.8919 41.7757 65.6514 41.6325C65.4149 41.4893 65.2296 41.3037 65.0955 41.0756ZM80.1403 41.7121H78.4667L78.4845 41.5291L79.1586 41.362L79.4957 35.3156L78.7506 35.1406L78.7802 34.9417H80.0694L80.3592 35.968L81.6247 40.471L83.0736 35.7293L83.322 34.9417H84.6408L84.6171 35.1406L83.9252 35.2997L84.144 41.4018L84.8714 41.4893L84.8655 41.7121H82.9967L83.0204 41.5291L83.7123 41.362L83.4817 35.3554L81.6011 41.3859L81.4 41.4336L79.75 35.4509L79.4307 41.4018L80.164 41.4893L80.1403 41.7121ZM89.8864 38.0126C89.8864 38.6915 89.9573 39.2909 90.0992 39.8106C90.2412 40.3357 90.4541 40.7494 90.7379 41.0517C91.0218 41.3541 91.3569 41.5052 91.7433 41.5052C91.968 41.5052 92.177 41.4469 92.3702 41.3302C92.5673 41.2135 92.7329 41.057 92.8669 40.8608C93.0049 40.6646 93.1212 40.4418 93.2158 40.1925C93.3105 39.9379 93.3814 39.6754 93.4287 39.4049C93.4721 39.1344 93.4938 38.8639 93.4938 38.5934C93.4938 37.5432 93.3262 36.6973 92.9911 36.0555C92.656 35.4084 92.2026 35.0849 91.6309 35.0849C91.4023 35.0849 91.1913 35.1406 90.9982 35.252C90.805 35.3634 90.6413 35.5145 90.5073 35.7055C90.3693 35.8964 90.253 36.1192 90.1584 36.3737C90.0638 36.623 89.9948 36.8882 89.9514 37.1693C89.908 37.4451 89.8864 37.7262 89.8864 38.0126ZM89.4428 38.3388C89.4428 37.2781 89.6577 36.4188 90.0874 35.7612C90.5211 35.1088 91.1007 34.7826 91.8261 34.7826C92.2755 34.7826 92.6599 34.9364 92.9793 35.244C93.3026 35.557 93.5431 35.9733 93.7008 36.4931C93.8545 37.0182 93.9314 37.6201 93.9314 38.299C93.9314 38.6385 93.9018 38.9753 93.8427 39.3094C93.7836 39.6383 93.6909 39.9565 93.5648 40.2641C93.4346 40.577 93.2789 40.8502 93.0976 41.0836C92.9162 41.3169 92.6915 41.5052 92.4234 41.6484C92.1592 41.7863 91.8675 41.8553 91.5481 41.8553C91.1342 41.8553 90.7636 41.6962 90.4363 41.3779C90.113 41.0544 89.8666 40.6274 89.6971 40.097C89.5276 39.5667 89.4428 38.9806 89.4428 38.3388ZM100.159 41.7121H98.4851L98.5028 41.5291L99.177 41.362L99.5141 35.3156L98.7689 35.1406L98.7985 34.9417H100.088L100.377 35.968L101.643 40.471L103.092 35.7293L103.34 34.9417H104.659L104.635 35.1406L103.944 35.2997L104.162 41.4018L104.89 41.4893L104.884 41.7121H103.015L103.039 41.5291L103.731 41.362L103.5 35.3554L101.619 41.3859L101.418 41.4336L99.7684 35.4509L99.449 41.4018L100.182 41.4893L100.159 41.7121ZM110.171 35.3156L109.443 35.1724L109.473 34.9417H113.134L113.009 36.6761L112.826 36.6442L112.749 35.2202H110.591V38.124H111.945L112.093 37.3682L112.312 37.3284L112.176 39.4447L111.969 39.4924L111.904 38.4184H110.591V41.4177H112.862L113.157 39.9538L113.323 40.0095L113.205 41.7121H109.455L109.479 41.4813L110.171 41.3143V35.3156ZM118.622 35.3156L117.871 35.1406L117.906 34.9417H119.13L121.922 40.7335V35.2918L121.182 35.1565L121.206 34.9417H122.921L122.891 35.1565L122.217 35.2838V41.7439L121.998 41.8075L118.917 35.5463V41.3541L119.663 41.4575L119.621 41.7121H117.924L117.948 41.4813L118.622 41.3143V35.3156ZM127.504 36.692L127.463 34.9417H131.638L131.496 36.7477L131.295 36.7158L131.224 35.2202H129.728V41.3143L130.443 41.4575L130.396 41.7121H128.569L128.586 41.4813L129.296 41.3143V35.2202H127.853L127.711 36.7397L127.504 36.692ZM136.204 41.0756L136.322 39.5322L136.517 39.572L136.629 40.7653C136.72 40.9934 136.87 41.1737 137.079 41.3063C137.288 41.4389 137.51 41.5052 137.747 41.5052C138.015 41.5052 138.244 41.3991 138.433 41.187C138.622 40.9695 138.717 40.6699 138.717 40.288C138.717 40.0705 138.676 39.8637 138.593 39.6674C138.506 39.4712 138.394 39.2988 138.256 39.1503C138.122 39.0018 137.972 38.8559 137.806 38.7127C137.641 38.5695 137.475 38.421 137.309 38.2672C137.144 38.1187 136.994 37.9622 136.86 37.7978C136.722 37.6334 136.612 37.4398 136.529 37.2171C136.442 36.9943 136.399 36.753 136.399 36.4931C136.399 35.9839 136.537 35.5729 136.813 35.2599C137.085 34.9523 137.394 34.7985 137.741 34.7985C137.974 34.7985 138.196 34.8489 138.409 34.9497C138.622 35.0504 138.794 35.1989 138.924 35.3952L138.788 37.0818L138.605 37.042L138.492 35.7214C138.421 35.5463 138.303 35.4005 138.137 35.2838C137.976 35.1671 137.81 35.1088 137.641 35.1088C137.404 35.1088 137.205 35.2096 137.043 35.4111C136.878 35.6179 136.795 35.8937 136.795 36.2385C136.795 36.4719 136.84 36.692 136.931 36.8988C137.018 37.1057 137.13 37.286 137.268 37.4398C137.406 37.5936 137.56 37.7474 137.729 37.9013C137.895 38.0498 138.062 38.1983 138.232 38.3468C138.398 38.4953 138.551 38.6491 138.693 38.8082C138.831 38.9673 138.944 39.153 139.03 39.3651C139.117 39.5773 139.16 39.8 139.16 40.0334C139.16 40.5585 139.013 40.9934 138.717 41.3381C138.421 41.6776 138.027 41.8473 137.534 41.8473C137.254 41.8473 136.996 41.7757 136.759 41.6325C136.523 41.4893 136.338 41.3037 136.204 41.0756ZM150.71 35.1804V41.4177H151.438C152.147 41.4177 152.719 41.1313 153.153 40.5585C153.586 39.9857 153.803 39.2352 153.803 38.307C153.803 37.2887 153.594 36.509 153.176 35.968C152.762 35.427 152.175 35.1565 151.414 35.1565C151.02 35.1565 150.785 35.1645 150.71 35.1804ZM151.325 41.7121H149.587L149.616 41.4813L150.302 41.3143V35.435L149.604 35.3156L149.646 35.1247C150.466 34.9497 151.104 34.8622 151.562 34.8622C151.94 34.8622 152.283 34.9258 152.591 35.0531C152.894 35.1751 153.149 35.3421 153.354 35.5543C153.555 35.7612 153.722 36.0078 153.856 36.2942C153.99 36.5806 154.087 36.8776 154.146 37.1852C154.205 37.4929 154.235 37.8137 154.235 38.1479C154.235 38.5298 154.201 38.8904 154.134 39.2299C154.067 39.5746 153.959 39.8982 153.809 40.2005C153.659 40.5081 153.472 40.7706 153.247 40.9881C153.026 41.2109 152.752 41.3859 152.425 41.5132C152.098 41.6458 151.731 41.7121 151.325 41.7121ZM159.528 35.3156L158.8 35.1724L158.83 34.9417H162.491L162.366 36.6761L162.183 36.6442L162.106 35.2202H159.948V38.124H161.302L161.45 37.3682L161.669 37.3284L161.532 39.4447L161.326 39.4924L161.26 38.4184H159.948V41.4177H162.218L162.514 39.9538L162.68 40.0095L162.561 41.7121H158.812L158.836 41.4813L159.528 41.3143V35.3156ZM173.171 43.4782L173.082 43.2396C173.441 42.8259 173.699 42.3963 173.857 41.9507C174.015 41.4999 174.093 40.9085 174.093 40.1766V35.2918L173.366 35.1565L173.39 34.9417H175.241L175.217 35.1565L174.543 35.2838L174.525 39.7549C174.525 40.2906 174.502 40.7362 174.454 41.0915C174.411 41.4469 174.332 41.7678 174.218 42.0542C174.103 42.3406 173.967 42.5872 173.81 42.794C173.652 42.9956 173.439 43.2237 173.171 43.4782ZM180.25 38.0126C180.25 38.6915 180.321 39.2909 180.463 39.8106C180.605 40.3357 180.818 40.7494 181.101 41.0517C181.385 41.3541 181.718 41.5052 182.101 41.5052C182.329 41.5052 182.54 41.4469 182.734 41.3302C182.927 41.2135 183.092 41.057 183.23 40.8608C183.364 40.6646 183.481 40.4418 183.579 40.1925C183.674 39.9379 183.743 39.6754 183.786 39.4049C183.834 39.1344 183.857 38.8639 183.857 38.5934C183.857 37.5432 183.69 36.6973 183.355 36.0555C183.019 35.4084 182.566 35.0849 181.994 35.0849C181.766 35.0849 181.555 35.1406 181.362 35.252C181.164 35.3634 180.999 35.5145 180.865 35.7055C180.731 35.8964 180.616 36.1192 180.522 36.3737C180.427 36.623 180.358 36.8882 180.315 37.1693C180.271 37.4451 180.25 37.7262 180.25 38.0126ZM179.8 38.3388C179.8 37.2781 180.017 36.4188 180.451 35.7612C180.885 35.1088 181.464 34.7826 182.19 34.7826C182.635 34.7826 183.019 34.9364 183.343 35.244C183.666 35.557 183.905 35.9733 184.058 36.4931C184.216 37.0182 184.295 37.6201 184.295 38.299C184.295 38.6385 184.265 38.9753 184.206 39.3094C184.147 39.6383 184.052 39.9565 183.922 40.2641C183.796 40.577 183.642 40.8502 183.461 41.0836C183.28 41.3169 183.055 41.5052 182.787 41.6484C182.519 41.7863 182.227 41.8553 181.912 41.8553C181.494 41.8553 181.123 41.6962 180.8 41.3779C180.476 41.0544 180.228 40.6274 180.055 40.097C179.885 39.5667 179.8 38.9806 179.8 38.3388ZM189.552 35.2918L188.849 35.1565L188.872 34.9417H190.723L190.694 35.1565L189.984 35.2838V41.3541L190.765 41.4575L190.729 41.7121H188.89L188.914 41.4813L189.552 41.3143V35.2918ZM196.052 35.3156L195.324 35.1724L195.354 34.9417H199.02L198.89 36.6761L198.707 36.6442L198.63 35.2202H196.471V38.124H197.826L197.974 37.3682L198.192 37.3284L198.062 39.4447L197.855 39.4924L197.79 38.4184H196.471V41.4177H198.742L199.044 39.9538L199.21 40.0095L199.085 41.7121H195.336L195.366 41.4813L196.052 41.3143V35.3156Z" fill="#00A3DD"/>
</g>
<defs>
<clipPath id="clip0_29_160">
<rect width="200" height="43.4783" fill="white"/>
</clipPath>
</defs>
</svg>
