<svg data-v-423bf9ae="" xmlns="http://www.w3.org/2000/svg" viewBox="0 0 509 112" class="iconLeftSlogan"><!----><!----><!----><g data-v-423bf9ae="" id="2c12b7d9-9d02-44ba-a357-f32c31f8e63e" fill="black" transform="matrix(5.1635112384610125,0,0,5.1635112384610125,115.13957173915091,-17.91738486044469)"><path d="M5.25 9.49L3.18 4.26L0.92 4.26L0.92 14.92L2.77 14.92L2.77 7.77L4.42 11.79L5.92 11.79L7.59 7.76L7.59 14.92L9.44 14.92L9.44 4.26L7.32 4.26ZM15.60 14.92L17.26 14.92L17.26 9.24C17.26 7.07 16.04 6.34 14.25 6.34C12.28 6.34 11.24 7.17 11.24 9.24L12.94 9.24C12.94 8.26 13.38 7.90 14.24 7.90C15.06 7.90 15.47 8.32 15.47 9.28L15.47 10.14C15.08 10.09 14.62 10.05 14.25 10.05C11.96 10.05 10.99 11.00 10.99 12.70C10.99 14.25 11.98 15.09 13.41 15.09C14.35 15.09 15.08 14.80 15.53 14.28ZM15.47 12.05C15.47 13.01 14.78 13.54 14.01 13.54C13.24 13.54 12.85 13.19 12.85 12.54C12.85 11.77 13.27 11.37 14.41 11.37C14.67 11.37 15.18 11.40 15.47 11.45ZM21.81 13.38C21.03 13.38 20.73 13.08 20.73 12.01L20.73 8.55L22.41 8.55L22.41 6.92L20.73 6.92L20.73 4.97L18.80 4.97L18.80 11.96C18.80 14.07 19.42 15.09 21.36 15.09C21.80 15.09 22.23 15.04 22.41 14.99L22.41 13.31C22.25 13.36 22.02 13.38 21.81 13.38ZM28.28 11.93L28.28 12.08C28.28 13.01 27.90 13.44 26.94 13.44C25.96 13.44 25.59 12.96 25.59 11.80L25.59 9.60C25.59 8.43 25.98 8.01 26.95 8.01C27.89 8.01 28.25 8.41 28.25 9.32L28.25 9.48L30.09 9.48L30.09 9.31C30.09 7.32 29.09 6.34 26.92 6.34C24.77 6.34 23.70 7.36 23.70 9.63L23.70 11.79C23.70 14.07 24.74 15.09 26.89 15.09C29.12 15.09 30.10 14.07 30.10 12.05L30.10 11.93ZM33.45 4.12L31.56 4.12L31.56 14.92L33.45 14.92L33.45 9.42C33.45 8.44 33.94 8.01 34.73 8.01C35.67 8.01 35.98 8.47 35.98 9.58L35.98 14.92L37.87 14.92L37.87 9.38C37.87 7.34 37.13 6.34 35.31 6.34C34.51 6.34 33.88 6.54 33.45 6.93ZM47.24 10.11L47.24 8.58L43.13 8.58C41.87 8.58 41.30 7.85 41.30 6.97C41.30 5.99 41.86 5.57 42.71 5.57C43.54 5.57 44.09 6.06 44.17 7.07L46.06 7.07C45.89 5.10 44.67 4.09 42.77 4.09C40.70 4.09 39.52 5.18 39.52 6.92C39.52 8.11 40.05 8.95 41.10 9.34C39.94 9.72 39.21 10.64 39.21 12.07C39.21 14.01 40.40 15.09 42.35 15.09C43.51 15.09 44.30 14.70 44.74 14.03C45.02 14.73 45.58 15.08 46.66 15.08C46.91 15.08 47.18 15.05 47.40 15.02L47.40 13.33C47.26 13.36 47.12 13.37 46.96 13.37C46.21 13.37 45.93 13.08 45.93 12.00L45.93 10.11ZM44.18 11.58C44.18 12.88 43.75 13.55 42.60 13.55C41.50 13.55 41.08 12.88 41.08 11.90C41.08 10.54 41.99 10.11 43.01 10.11L44.18 10.11ZM53.96 11.35L53.96 11.63C53.91 12.78 53.48 13.27 52.44 13.27C51.14 13.27 50.85 12.56 50.85 11.19L50.85 8.01C50.85 6.64 51.17 5.91 52.44 5.91C53.42 5.91 53.93 6.43 53.93 7.53L53.93 7.73L56.00 7.73L56.00 7.57C56.00 5.31 54.84 4.09 52.44 4.09C49.87 4.09 48.82 5.45 48.82 7.94L48.82 11.27C48.82 13.73 49.85 15.09 52.44 15.09C54.89 15.09 55.99 13.86 56.01 11.61L56.01 11.35ZM59.33 4.12L57.44 4.12L57.44 14.92L59.33 14.92L59.33 9.42C59.33 8.44 59.82 8.01 60.62 8.01C61.56 8.01 61.87 8.47 61.87 9.58L61.87 14.92L63.76 14.92L63.76 9.38C63.76 7.34 63.01 6.34 61.19 6.34C60.40 6.34 59.77 6.54 59.33 6.93ZM67.31 6.51L65.42 6.51L65.42 14.92L67.31 14.92ZM67.31 3.47L65.42 3.47L65.42 5.28L67.31 5.28ZM72.06 13.33C71.20 13.37 70.91 13.16 70.91 12.01L70.91 4.12L69.03 4.12L69.03 11.93C69.03 14.28 69.62 15.26 72.06 15.01ZM76.26 13.33C75.40 13.37 75.11 13.16 75.11 12.01L75.11 4.12L73.23 4.12L73.23 11.93C73.23 14.28 73.82 15.26 76.26 15.01Z"></path></g><!----><g data-v-423bf9ae="" id="7512ba78-d05f-4e2a-85b4-8c89b45fab76" transform="matrix(1.1111111111111112,0,0,1.1111111111111112,7.741781552632645,0.4675556288825149)" stroke="none" fill="black"><path d="M41.695-.208c3.905 0 7.07 2.972 7.07 6.645 0 3.669-3.165 6.641-7.07 6.641-3.905 0-7.07-2.972-7.07-6.641 0-3.673 3.165-6.645 7.07-6.645zM29.587 15.196s51.915-1.771 54.08 6.105c1.213 4.381-18.675 3.941-31.122 3.811l-.244 20.001-6.605 30.925S31.792 103.09 24.998 99.091c0 0-5.779-3.551 9.715-25.91l2.283-14.92s-10.731 14.92-15.872 12.447c0 0-10.291-3.621 7.621-25.339l.252-18.541S6.251 47.593 2.96 45.877c0 0-11.999-.89 26.415-30.453"></path><path d="M18.761 58.388s-3.047 6.574-1.079 10.259c0 0-10.628.188-8.786-6.26 0 0 .661-3.424 9.865-3.999zM2.582 81.629c4.834 0 8.763 4.07 8.763 9.078 0 5.022-3.928 9.085-8.763 9.085-4.842 0-8.763-4.062-8.763-9.085 0-5.008 3.921-9.078 8.763-9.078z"></path></g><!----><g data-v-423bf9ae="" id="839bef8d-aae0-4bbc-ab09-4244195eb7cd" fill="black" transform="matrix(1.2126052450730531,0,0,1.2126052450730531,119.48982941151272,53.100277942453346)"><path d="M2.24 6.19L2.24 14.03L3.47 14.03L3.47 14.03Q5.27 14.03 6.37 12.95L6.37 12.95L6.37 12.95Q7.46 11.87 7.46 10.12L7.46 10.12L7.46 10.12Q7.46 8.20 6.41 7.18L6.41 7.18L6.41 7.18Q5.36 6.16 3.42 6.16L3.42 6.16L3.42 6.16Q2.43 6.16 2.24 6.19L2.24 6.19ZM3.28 14.40L0.33 14.40L0.39 14.11L1.54 13.90L1.54 6.51L0.37 6.36L0.44 6.12L0.44 6.12Q2.52 5.79 3.68 5.79L3.68 5.79L3.68 5.79Q4.64 5.79 5.42 6.03L5.42 6.03L5.42 6.03Q6.19 6.26 6.71 6.66L6.71 6.66L6.71 6.66Q7.22 7.05 7.56 7.59L7.56 7.59L7.56 7.59Q7.90 8.13 8.05 8.71L8.05 8.71L8.05 8.71Q8.20 9.29 8.20 9.92L8.20 9.92L8.20 9.92Q8.20 10.64 8.03 11.28L8.03 11.28L8.03 11.28Q7.86 11.93 7.48 12.50L7.48 12.50L7.48 12.50Q7.10 13.08 6.53 13.49L6.53 13.49L6.53 13.49Q5.97 13.91 5.14 14.15L5.14 14.15L5.14 14.15Q4.31 14.40 3.28 14.40L3.28 14.40ZM17.14 6.36L15.92 6.18L15.97 5.89L22.16 5.89L21.95 8.07L21.64 8.03L21.51 6.24L17.86 6.24L17.86 9.89L20.15 9.89L20.40 8.94L20.77 8.89L20.54 11.55L20.19 11.61L20.08 10.26L17.86 10.26L17.86 14.03L21.70 14.03L22.20 12.19L22.48 12.26L22.28 14.40L15.94 14.40L15.98 14.11L17.14 13.90L17.14 6.36ZM30.20 13.60L30.20 13.60L30.41 11.66L30.73 11.71L30.93 13.21L30.93 13.21Q31.15 13.64 31.68 13.89L31.68 13.89L31.68 13.89Q32.21 14.14 32.81 14.14L32.81 14.14L32.81 14.14Q33.50 14.14 33.97 13.74L33.97 13.74L33.97 13.74Q34.45 13.33 34.45 12.61L34.45 12.61L34.45 12.61Q34.45 12.20 34.24 11.83L34.24 11.83L34.24 11.83Q34.02 11.46 33.68 11.18L33.68 11.18L33.68 11.18Q33.33 10.90 32.91 10.63L32.91 10.63L32.91 10.63Q32.49 10.36 32.07 10.07L32.07 10.07L32.07 10.07Q31.66 9.79 31.31 9.48L31.31 9.48L31.31 9.48Q30.97 9.17 30.75 8.75L30.75 8.75L30.75 8.75Q30.54 8.33 30.54 7.84L30.54 7.84L30.54 7.84Q30.54 6.88 31.23 6.29L31.23 6.29L31.23 6.29Q31.92 5.71 32.81 5.71L32.81 5.71L32.81 5.71Q33.39 5.71 33.93 5.90L33.93 5.90L33.93 5.90Q34.47 6.09 34.80 6.46L34.80 6.46L34.58 8.58L34.26 8.53L34.08 6.87L34.08 6.87Q33.89 6.54 33.48 6.32L33.48 6.32L33.48 6.32Q33.06 6.10 32.63 6.10L32.63 6.10L32.63 6.10Q32.03 6.10 31.62 6.48L31.62 6.48L31.62 6.48Q31.21 6.87 31.21 7.52L31.21 7.52L31.21 7.52Q31.21 7.96 31.43 8.35L31.43 8.35L31.43 8.35Q31.65 8.74 32.00 9.03L32.00 9.03L32.00 9.03Q32.35 9.32 32.78 9.61L32.78 9.61L32.78 9.61Q33.20 9.89 33.63 10.17L33.63 10.17L33.63 10.17Q34.06 10.45 34.41 10.75L34.41 10.75L34.41 10.75Q34.76 11.05 34.98 11.45L34.98 11.45L34.98 11.45Q35.21 11.85 35.21 12.29L35.21 12.29L35.21 12.29Q35.21 13.28 34.45 13.93L34.45 13.93L34.45 13.93Q33.70 14.57 32.46 14.57L32.46 14.57L32.46 14.57Q31.75 14.57 31.14 14.30L31.14 14.30L31.14 14.30Q30.54 14.03 30.20 13.60ZM55.64 14.40L52.81 14.40L52.84 14.17L53.98 13.96L54.55 6.36L53.29 6.14L53.34 5.89L55.52 5.89L56.01 7.18L58.15 12.84L60.60 6.88L61.02 5.89L63.25 5.89L63.21 6.14L62.04 6.34L62.41 14.01L63.64 14.12L63.63 14.40L60.47 14.40L60.51 14.17L61.68 13.96L61.29 6.41L58.11 13.99L57.77 14.05L54.98 6.53L54.44 14.01L55.68 14.12L55.64 14.40ZM72.12 9.75L72.12 9.75L72.12 9.75Q72.12 11.03 72.48 12.01L72.48 12.01L72.48 12.01Q72.84 13.00 73.56 13.57L73.56 13.57L73.56 13.57Q74.28 14.14 75.26 14.14L75.26 14.14L75.26 14.14Q75.83 14.14 76.32 13.92L76.32 13.92L76.32 13.92Q76.82 13.70 77.16 13.33L77.16 13.33L77.16 13.33Q77.51 12.96 77.75 12.49L77.75 12.49L77.75 12.49Q77.99 12.01 78.11 11.50L78.11 11.50L78.11 11.50Q78.22 10.99 78.22 10.48L78.22 10.48L78.22 10.48Q78.22 8.50 77.37 7.29L77.37 7.29L77.37 7.29Q76.52 6.07 75.07 6.07L75.07 6.07L75.07 6.07Q74.49 6.07 74.00 6.28L74.00 6.28L74.00 6.28Q73.51 6.49 73.17 6.85L73.17 6.85L73.17 6.85Q72.82 7.21 72.58 7.69L72.58 7.69L72.58 7.69Q72.34 8.16 72.23 8.69L72.23 8.69L72.23 8.69Q72.12 9.21 72.12 9.75ZM71.37 10.16L71.37 10.16L71.37 10.16Q71.37 8.16 72.46 6.92L72.46 6.92L72.46 6.92Q73.56 5.69 75.40 5.69L75.40 5.69L75.40 5.69Q76.54 5.69 77.35 6.27L77.35 6.27L77.35 6.27Q78.17 6.86 78.57 7.84L78.57 7.84L78.57 7.84Q78.96 8.83 78.96 10.11L78.96 10.11L78.96 10.11Q78.96 10.75 78.81 11.38L78.81 11.38L78.81 11.38Q78.66 12.00 78.34 12.58L78.34 12.58L78.34 12.58Q78.01 13.17 77.55 13.61L77.55 13.61L77.55 13.61Q77.09 14.05 76.41 14.32L76.41 14.32L76.41 14.32Q75.74 14.58 74.93 14.58L74.93 14.58L74.93 14.58Q73.88 14.58 73.05 13.98L73.05 13.98L73.05 13.98Q72.23 13.37 71.80 12.37L71.80 12.37L71.80 12.37Q71.37 11.37 71.37 10.16ZM89.49 14.40L86.66 14.40L86.69 14.17L87.83 13.96L88.40 6.36L87.14 6.14L87.19 5.89L89.37 5.89L89.86 7.18L92.00 12.84L94.45 6.88L94.87 5.89L97.10 5.89L97.06 6.14L95.89 6.34L96.26 14.01L97.49 14.12L97.48 14.40L94.32 14.40L94.36 14.17L95.53 13.96L95.14 6.41L91.96 13.99L91.62 14.05L88.83 6.53L88.29 14.01L89.53 14.12L89.49 14.40ZM106.42 6.36L105.19 6.18L105.24 5.89L111.43 5.89L111.22 8.07L110.91 8.03L110.78 6.24L107.13 6.24L107.13 9.89L109.42 9.89L109.67 8.94L110.04 8.89L109.81 11.55L109.46 11.61L109.35 10.26L107.13 10.26L107.13 14.03L110.97 14.03L111.47 12.19L111.75 12.26L111.55 14.40L105.21 14.40L105.25 14.11L106.42 13.90L106.42 6.36ZM120.71 6.36L119.44 6.14L119.50 5.89L121.57 5.89L126.29 13.17L126.29 6.33L125.04 6.16L125.08 5.89L127.98 5.89L127.93 6.16L126.79 6.32L126.79 14.44L126.42 14.52L121.21 6.65L121.21 13.95L122.47 14.08L122.40 14.40L119.53 14.40L119.57 14.11L120.71 13.90L120.71 6.36ZM135.73 8.09L135.66 5.89L142.72 5.89L142.48 8.16L142.14 8.12L142.02 6.24L139.49 6.24L139.49 13.90L140.70 14.08L140.62 14.40L137.53 14.40L137.56 14.11L138.76 13.90L138.76 6.24L136.32 6.24L136.08 8.15L135.73 8.09ZM150.44 13.60L150.44 13.60L150.64 11.66L150.97 11.71L151.16 13.21L151.16 13.21Q151.39 13.64 151.92 13.89L151.92 13.89L151.92 13.89Q152.45 14.14 153.05 14.14L153.05 14.14L153.05 14.14Q153.73 14.14 154.21 13.74L154.21 13.74L154.21 13.74Q154.69 13.33 154.69 12.61L154.69 12.61L154.69 12.61Q154.69 12.20 154.48 11.83L154.48 11.83L154.48 11.83Q154.26 11.46 153.91 11.18L153.91 11.18L153.91 11.18Q153.57 10.90 153.15 10.63L153.15 10.63L153.15 10.63Q152.73 10.36 152.31 10.07L152.31 10.07L152.31 10.07Q151.89 9.79 151.55 9.48L151.55 9.48L151.55 9.48Q151.20 9.17 150.99 8.75L150.99 8.75L150.99 8.75Q150.77 8.33 150.77 7.84L150.77 7.84L150.77 7.84Q150.77 6.88 151.47 6.29L151.47 6.29L151.47 6.29Q152.16 5.71 153.04 5.71L153.04 5.71L153.04 5.71Q153.63 5.71 154.17 5.90L154.17 5.90L154.17 5.90Q154.71 6.09 155.04 6.46L155.04 6.46L154.81 8.58L154.50 8.53L154.31 6.87L154.31 6.87Q154.13 6.54 153.71 6.32L153.71 6.32L153.71 6.32Q153.30 6.10 152.87 6.10L152.87 6.10L152.87 6.10Q152.27 6.10 151.86 6.48L151.86 6.48L151.86 6.48Q151.44 6.87 151.44 7.52L151.44 7.52L151.44 7.52Q151.44 7.96 151.67 8.35L151.67 8.35L151.67 8.35Q151.89 8.74 152.24 9.03L152.24 9.03L152.24 9.03Q152.59 9.32 153.02 9.61L153.02 9.61L153.02 9.61Q153.44 9.89 153.87 10.17L153.87 10.17L153.87 10.17Q154.29 10.45 154.65 10.75L154.65 10.75L154.65 10.75Q155.00 11.05 155.22 11.45L155.22 11.45L155.22 11.45Q155.44 11.85 155.44 12.29L155.44 12.29L155.44 12.29Q155.44 13.28 154.69 13.93L154.69 13.93L154.69 13.93Q153.94 14.57 152.69 14.57L152.69 14.57L152.69 14.57Q151.98 14.57 151.38 14.30L151.38 14.30L151.38 14.30Q150.78 14.03 150.44 13.60ZM174.97 6.19L174.97 14.03L176.20 14.03L176.20 14.03Q178.00 14.03 179.10 12.95L179.10 12.95L179.10 12.95Q180.20 11.87 180.20 10.12L180.20 10.12L180.20 10.12Q180.20 8.20 179.14 7.18L179.14 7.18L179.14 7.18Q178.09 6.16 176.16 6.16L176.16 6.16L176.16 6.16Q175.16 6.16 174.97 6.19L174.97 6.19ZM176.01 14.40L173.07 14.40L173.12 14.11L174.28 13.90L174.28 6.51L173.10 6.36L173.17 6.12L173.17 6.12Q175.25 5.79 176.41 5.79L176.41 5.79L176.41 5.79Q177.37 5.79 178.15 6.03L178.15 6.03L178.15 6.03Q178.92 6.26 179.44 6.66L179.44 6.66L179.44 6.66Q179.95 7.05 180.29 7.59L180.29 7.59L180.29 7.59Q180.63 8.13 180.78 8.71L180.78 8.71L180.78 8.71Q180.93 9.29 180.93 9.92L180.93 9.92L180.93 9.92Q180.93 10.64 180.76 11.28L180.76 11.28L180.76 11.28Q180.59 11.93 180.21 12.50L180.21 12.50L180.21 12.50Q179.83 13.08 179.26 13.49L179.26 13.49L179.26 13.49Q178.70 13.91 177.87 14.15L177.87 14.15L177.87 14.15Q177.04 14.40 176.01 14.40L176.01 14.40ZM189.88 6.36L188.65 6.18L188.70 5.89L194.89 5.89L194.68 8.07L194.37 8.03L194.24 6.24L190.59 6.24L190.59 9.89L192.88 9.89L193.13 8.94L193.50 8.89L193.27 11.55L192.92 11.61L192.81 10.26L190.59 10.26L190.59 14.03L194.43 14.03L194.93 12.19L195.21 12.26L195.01 14.40L188.67 14.40L188.71 14.11L189.88 13.90L189.88 6.36ZM212.95 16.62L212.80 16.32L212.80 16.32Q213.71 15.54 214.11 14.70L214.11 14.70L214.11 14.70Q214.51 13.85 214.51 12.47L214.51 12.47L214.51 6.33L213.28 6.16L213.32 5.89L216.45 5.89L216.41 6.16L215.27 6.32L215.24 11.94L215.24 11.94Q215.24 12.95 215.12 13.62L215.12 13.62L215.12 13.62Q215.01 14.29 214.72 14.83L214.72 14.83L214.72 14.83Q214.43 15.37 214.03 15.76L214.03 15.76L214.03 15.76Q213.63 16.14 212.95 16.62L212.95 16.62ZM224.92 9.75L224.92 9.75L224.92 9.75Q224.92 11.03 225.28 12.01L225.28 12.01L225.28 12.01Q225.64 13.00 226.36 13.57L226.36 13.57L226.36 13.57Q227.08 14.14 228.05 14.14L228.05 14.14L228.05 14.14Q228.63 14.14 229.12 13.92L229.12 13.92L229.12 13.92Q229.61 13.70 229.96 13.33L229.96 13.33L229.96 13.33Q230.30 12.96 230.55 12.49L230.55 12.49L230.55 12.49Q230.79 12.01 230.90 11.50L230.90 11.50L230.90 11.50Q231.02 10.99 231.02 10.48L231.02 10.48L231.02 10.48Q231.02 8.50 230.17 7.29L230.17 7.29L230.17 7.29Q229.32 6.07 227.87 6.07L227.87 6.07L227.87 6.07Q227.29 6.07 226.80 6.28L226.80 6.28L226.80 6.28Q226.30 6.49 225.96 6.85L225.96 6.85L225.96 6.85Q225.62 7.21 225.38 7.69L225.38 7.69L225.38 7.69Q225.14 8.16 225.03 8.69L225.03 8.69L225.03 8.69Q224.92 9.21 224.92 9.75ZM224.16 10.16L224.16 10.16L224.16 10.16Q224.16 8.16 225.26 6.92L225.26 6.92L225.26 6.92Q226.36 5.69 228.20 5.69L228.20 5.69L228.20 5.69Q229.33 5.69 230.15 6.27L230.15 6.27L230.15 6.27Q230.97 6.86 231.36 7.84L231.36 7.84L231.36 7.84Q231.76 8.83 231.76 10.11L231.76 10.11L231.76 10.11Q231.76 10.75 231.61 11.38L231.61 11.38L231.61 11.38Q231.46 12.00 231.13 12.58L231.13 12.58L231.13 12.58Q230.81 13.17 230.35 13.61L230.35 13.61L230.35 13.61Q229.89 14.05 229.21 14.32L229.21 14.32L229.21 14.32Q228.53 14.58 227.73 14.58L227.73 14.58L227.73 14.58Q226.67 14.58 225.85 13.98L225.85 13.98L225.85 13.98Q225.03 13.37 224.59 12.37L224.59 12.37L224.59 12.37Q224.16 11.37 224.16 10.16ZM240.65 6.33L239.46 6.16L239.50 5.89L242.63 5.89L242.58 6.16L241.38 6.32L241.38 13.95L242.70 14.08L242.64 14.40L239.53 14.40L239.57 14.11L240.65 13.90L240.65 6.33ZM251.64 6.36L250.41 6.18L250.46 5.89L256.66 5.89L256.44 8.07L256.13 8.03L256.00 6.24L252.35 6.24L252.35 9.89L254.64 9.89L254.89 8.94L255.26 8.89L255.04 11.55L254.69 11.61L254.58 10.26L252.35 10.26L252.35 14.03L256.19 14.03L256.70 12.19L256.98 12.26L256.77 14.40L250.43 14.40L250.48 14.11L251.64 13.90L251.64 6.36Z"></path></g></svg>