<svg data-v-423bf9ae="" xmlns="http://www.w3.org/2000/svg" viewBox="0 0 389.0189571907742 60" class="font"><!----><!----><!----><g data-v-423bf9ae="" id="e8363832-5551-4396-b6df-9cee50aaf84e" fill="white" transform="matrix(5.1635112384610125,0,0,5.1635112384610125,-4.750427650497528,-17.91738486044469)"><path d="M5.25 9.49L3.18 4.26L0.92 4.26L0.92 14.92L2.77 14.92L2.77 7.77L4.42 11.79L5.92 11.79L7.59 7.76L7.59 14.92L9.44 14.92L9.44 4.26L7.32 4.26ZM15.60 14.92L17.26 14.92L17.26 9.24C17.26 7.07 16.04 6.34 14.25 6.34C12.28 6.34 11.24 7.17 11.24 9.24L12.94 9.24C12.94 8.26 13.38 7.90 14.24 7.90C15.06 7.90 15.47 8.32 15.47 9.28L15.47 10.14C15.08 10.09 14.62 10.05 14.25 10.05C11.96 10.05 10.99 11.00 10.99 12.70C10.99 14.25 11.98 15.09 13.41 15.09C14.35 15.09 15.08 14.80 15.53 14.28ZM15.47 12.05C15.47 13.01 14.78 13.54 14.01 13.54C13.24 13.54 12.85 13.19 12.85 12.54C12.85 11.77 13.27 11.37 14.41 11.37C14.67 11.37 15.18 11.40 15.47 11.45ZM21.81 13.38C21.03 13.38 20.73 13.08 20.73 12.01L20.73 8.55L22.41 8.55L22.41 6.92L20.73 6.92L20.73 4.97L18.80 4.97L18.80 11.96C18.80 14.07 19.42 15.09 21.36 15.09C21.80 15.09 22.23 15.04 22.41 14.99L22.41 13.31C22.25 13.36 22.02 13.38 21.81 13.38ZM28.28 11.93L28.28 12.08C28.28 13.01 27.90 13.44 26.94 13.44C25.96 13.44 25.59 12.96 25.59 11.80L25.59 9.60C25.59 8.43 25.98 8.01 26.95 8.01C27.89 8.01 28.25 8.41 28.25 9.32L28.25 9.48L30.09 9.48L30.09 9.31C30.09 7.32 29.09 6.34 26.92 6.34C24.77 6.34 23.70 7.36 23.70 9.63L23.70 11.79C23.70 14.07 24.74 15.09 26.89 15.09C29.12 15.09 30.10 14.07 30.10 12.05L30.10 11.93ZM33.45 4.12L31.56 4.12L31.56 14.92L33.45 14.92L33.45 9.42C33.45 8.44 33.94 8.01 34.73 8.01C35.67 8.01 35.98 8.47 35.98 9.58L35.98 14.92L37.87 14.92L37.87 9.38C37.87 7.34 37.13 6.34 35.31 6.34C34.51 6.34 33.88 6.54 33.45 6.93ZM47.24 10.11L47.24 8.58L43.13 8.58C41.87 8.58 41.30 7.85 41.30 6.97C41.30 5.99 41.86 5.57 42.71 5.57C43.54 5.57 44.09 6.06 44.17 7.07L46.06 7.07C45.89 5.10 44.67 4.09 42.77 4.09C40.70 4.09 39.52 5.18 39.52 6.92C39.52 8.11 40.05 8.95 41.10 9.34C39.94 9.72 39.21 10.64 39.21 12.07C39.21 14.01 40.40 15.09 42.35 15.09C43.51 15.09 44.30 14.70 44.74 14.03C45.02 14.73 45.58 15.08 46.66 15.08C46.91 15.08 47.18 15.05 47.40 15.02L47.40 13.33C47.26 13.36 47.12 13.37 46.96 13.37C46.21 13.37 45.93 13.08 45.93 12.00L45.93 10.11ZM44.18 11.58C44.18 12.88 43.75 13.55 42.60 13.55C41.50 13.55 41.08 12.88 41.08 11.90C41.08 10.54 41.99 10.11 43.01 10.11L44.18 10.11ZM53.96 11.35L53.96 11.63C53.91 12.78 53.48 13.27 52.44 13.27C51.14 13.27 50.85 12.56 50.85 11.19L50.85 8.01C50.85 6.64 51.17 5.91 52.44 5.91C53.42 5.91 53.93 6.43 53.93 7.53L53.93 7.73L56.00 7.73L56.00 7.57C56.00 5.31 54.84 4.09 52.44 4.09C49.87 4.09 48.82 5.45 48.82 7.94L48.82 11.27C48.82 13.73 49.85 15.09 52.44 15.09C54.89 15.09 55.99 13.86 56.01 11.61L56.01 11.35ZM59.33 4.12L57.44 4.12L57.44 14.92L59.33 14.92L59.33 9.42C59.33 8.44 59.82 8.01 60.62 8.01C61.56 8.01 61.87 8.47 61.87 9.58L61.87 14.92L63.76 14.92L63.76 9.38C63.76 7.34 63.01 6.34 61.19 6.34C60.40 6.34 59.77 6.54 59.33 6.93ZM67.31 6.51L65.42 6.51L65.42 14.92L67.31 14.92ZM67.31 3.47L65.42 3.47L65.42 5.28L67.31 5.28ZM72.06 13.33C71.20 13.37 70.91 13.16 70.91 12.01L70.91 4.12L69.03 4.12L69.03 11.93C69.03 14.28 69.62 15.26 72.06 15.01ZM76.26 13.33C75.40 13.37 75.11 13.16 75.11 12.01L75.11 4.12L73.23 4.12L73.23 11.93C73.23 14.28 73.82 15.26 76.26 15.01Z"></path></g><!----><!----></svg>