<svg width="30" height="30" viewBox="0 0 30 30" fill="none" xmlns="http://www.w3.org/2000/svg">
<path d="M2.75 21.25L9 22.5L9.9375 20.625M16.5 26.25V21.25L11.5 17.5L12.75 10M12.75 5C12.75 5.33152 12.8817 5.64946 13.1161 5.88388C13.3505 6.1183 13.6685 6.25 14 6.25C14.3315 6.25 14.6495 6.1183 14.8839 5.88388C15.1183 5.64946 15.25 5.33152 15.25 5C15.25 4.66848 15.1183 4.35054 14.8839 4.11612C14.6495 3.8817 14.3315 3.75 14 3.75C13.6685 3.75 13.3505 3.8817 13.1161 4.11612C12.8817 4.35054 12.75 4.66848 12.75 5Z" stroke="white" stroke-width="2.5" stroke-linecap="round" stroke-linejoin="round"/>
<path d="M6.5 15V11.25L12.75 10L16.5 13.75L20.25 15" stroke="white" stroke-width="2.5" stroke-linecap="round" stroke-linejoin="round"/>
<path d="M23.375 25C23.5408 25 23.6997 24.9342 23.8169 24.8169C23.9342 24.6997 24 24.5408 24 24.375C24 24.2092 23.9342 24.0503 23.8169 23.9331C23.6997 23.8158 23.5408 23.75 23.375 23.75C23.2092 23.75 23.0503 23.8158 22.9331 23.9331C22.8158 24.0503 22.75 24.2092 22.75 24.375C22.75 24.5408 22.8158 24.6997 22.9331 24.8169C23.0503 24.9342 23.2092 25 23.375 25Z" fill="white" stroke="white" stroke-width="2.5" stroke-linecap="round" stroke-linejoin="round"/>
</svg>
